<mxfile host="app.diagrams.net" modified="2023-11-10T16:21:15.214Z" agent="Mozilla/5.0 (Windows NT 10.0; Win64; x64) AppleWebKit/537.36 (KHTML, like Gecko) Chrome/119.0.0.0 Safari/537.36 Edg/119.0.0.0" etag="7EwOe51cZkYIqBzgK3H-" version="22.1.0" type="device">
  <diagram name="Страница — 1" id="ZvqTdciJJztTaUQGlRK_">
    <mxGraphModel dx="873" dy="562" grid="1" gridSize="10" guides="1" tooltips="1" connect="1" arrows="1" fold="1" page="1" pageScale="1" pageWidth="827" pageHeight="1169" math="0" shadow="0">
      <root>
        <mxCell id="0" />
        <mxCell id="1" parent="0" />
        <mxCell id="MgAw0p7v9MN4LnJvcfot-1" value="Manual" style="rounded=0;whiteSpace=wrap;html=1;" vertex="1" parent="1">
          <mxGeometry x="384" y="820" width="120" height="40" as="geometry" />
        </mxCell>
        <mxCell id="MgAw0p7v9MN4LnJvcfot-2" value="Phone" style="rounded=0;whiteSpace=wrap;html=1;" vertex="1" parent="1">
          <mxGeometry x="180" y="820" width="120" height="40" as="geometry" />
        </mxCell>
        <mxCell id="MgAw0p7v9MN4LnJvcfot-20" style="edgeStyle=orthogonalEdgeStyle;rounded=0;orthogonalLoop=1;jettySize=auto;html=1;entryX=0.5;entryY=0;entryDx=0;entryDy=0;endArrow=open;endFill=0;" edge="1" parent="1" source="MgAw0p7v9MN4LnJvcfot-7" target="MgAw0p7v9MN4LnJvcfot-2">
          <mxGeometry relative="1" as="geometry" />
        </mxCell>
        <mxCell id="MgAw0p7v9MN4LnJvcfot-7" value="PhoneBuilder" style="swimlane;fontStyle=0;childLayout=stackLayout;horizontal=1;startSize=30;horizontalStack=0;resizeParent=1;resizeParentMax=0;resizeLast=0;collapsible=1;marginBottom=0;whiteSpace=wrap;html=1;" vertex="1" parent="1">
          <mxGeometry x="170" y="585" width="140" height="180" as="geometry" />
        </mxCell>
        <mxCell id="MgAw0p7v9MN4LnJvcfot-8" value="+setname&lt;br&gt;&lt;br&gt;+buildScreen&lt;br&gt;&lt;br&gt;+buildBattery&lt;br&gt;&lt;br&gt;+buildOS&lt;br&gt;&lt;br&gt;+get result: Phone" style="text;strokeColor=none;fillColor=none;align=left;verticalAlign=middle;spacingLeft=4;spacingRight=4;overflow=hidden;points=[[0,0.5],[1,0.5]];portConstraint=eastwest;rotatable=0;whiteSpace=wrap;html=1;" vertex="1" parent="MgAw0p7v9MN4LnJvcfot-7">
          <mxGeometry y="30" width="140" height="150" as="geometry" />
        </mxCell>
        <mxCell id="MgAw0p7v9MN4LnJvcfot-21" style="edgeStyle=orthogonalEdgeStyle;rounded=0;orthogonalLoop=1;jettySize=auto;html=1;endArrow=open;endFill=0;" edge="1" parent="1" source="MgAw0p7v9MN4LnJvcfot-18" target="MgAw0p7v9MN4LnJvcfot-1">
          <mxGeometry relative="1" as="geometry" />
        </mxCell>
        <mxCell id="MgAw0p7v9MN4LnJvcfot-18" value="ManualBuilder" style="swimlane;fontStyle=0;childLayout=stackLayout;horizontal=1;startSize=30;horizontalStack=0;resizeParent=1;resizeParentMax=0;resizeLast=0;collapsible=1;marginBottom=0;whiteSpace=wrap;html=1;" vertex="1" parent="1">
          <mxGeometry x="374" y="585" width="140" height="180" as="geometry" />
        </mxCell>
        <mxCell id="MgAw0p7v9MN4LnJvcfot-19" value="+setname&lt;br&gt;&lt;br&gt;+buildScreen&lt;br&gt;&lt;br&gt;+buildBattery&lt;br&gt;&lt;br&gt;+buildOS&lt;br&gt;&lt;br&gt;+get result: Phone" style="text;strokeColor=none;fillColor=none;align=left;verticalAlign=middle;spacingLeft=4;spacingRight=4;overflow=hidden;points=[[0,0.5],[1,0.5]];portConstraint=eastwest;rotatable=0;whiteSpace=wrap;html=1;" vertex="1" parent="MgAw0p7v9MN4LnJvcfot-18">
          <mxGeometry y="30" width="140" height="150" as="geometry" />
        </mxCell>
        <mxCell id="MgAw0p7v9MN4LnJvcfot-22" value="&amp;lt;interface&amp;gt;&lt;br&gt;&lt;b&gt;Builder&lt;/b&gt;" style="swimlane;fontStyle=0;childLayout=stackLayout;horizontal=1;startSize=30;horizontalStack=0;resizeParent=1;resizeParentMax=0;resizeLast=0;collapsible=1;marginBottom=0;whiteSpace=wrap;html=1;" vertex="1" parent="1">
          <mxGeometry x="270" y="328" width="140" height="180" as="geometry" />
        </mxCell>
        <mxCell id="MgAw0p7v9MN4LnJvcfot-23" value="+setname&lt;br&gt;&lt;br&gt;+buildScreen&lt;br&gt;&lt;br&gt;+buildBattery&lt;br&gt;&lt;br&gt;+buildOS&lt;br&gt;&lt;br&gt;+get result: Phone" style="text;strokeColor=none;fillColor=none;align=left;verticalAlign=middle;spacingLeft=4;spacingRight=4;overflow=hidden;points=[[0,0.5],[1,0.5]];portConstraint=eastwest;rotatable=0;whiteSpace=wrap;html=1;" vertex="1" parent="MgAw0p7v9MN4LnJvcfot-22">
          <mxGeometry y="30" width="140" height="150" as="geometry" />
        </mxCell>
        <mxCell id="MgAw0p7v9MN4LnJvcfot-34" value="" style="group" vertex="1" connectable="0" parent="1">
          <mxGeometry x="240" y="520" width="210" height="65" as="geometry" />
        </mxCell>
        <mxCell id="MgAw0p7v9MN4LnJvcfot-28" value="" style="endArrow=none;dashed=1;html=1;dashPattern=1 3;strokeWidth=2;rounded=0;" edge="1" parent="MgAw0p7v9MN4LnJvcfot-34">
          <mxGeometry width="50" height="50" relative="1" as="geometry">
            <mxPoint y="65" as="sourcePoint" />
            <mxPoint y="37.142857142857146" as="targetPoint" />
          </mxGeometry>
        </mxCell>
        <mxCell id="MgAw0p7v9MN4LnJvcfot-29" value="" style="endArrow=none;dashed=1;html=1;dashPattern=1 3;strokeWidth=2;rounded=0;" edge="1" parent="MgAw0p7v9MN4LnJvcfot-34">
          <mxGeometry width="50" height="50" relative="1" as="geometry">
            <mxPoint x="210" y="65" as="sourcePoint" />
            <mxPoint x="210" y="37.142857142857146" as="targetPoint" />
          </mxGeometry>
        </mxCell>
        <mxCell id="MgAw0p7v9MN4LnJvcfot-30" value="" style="endArrow=none;dashed=1;html=1;dashPattern=1 3;strokeWidth=2;rounded=0;" edge="1" parent="MgAw0p7v9MN4LnJvcfot-34">
          <mxGeometry width="50" height="50" relative="1" as="geometry">
            <mxPoint y="37.142857142857146" as="sourcePoint" />
            <mxPoint x="100" y="37.142857142857146" as="targetPoint" />
          </mxGeometry>
        </mxCell>
        <mxCell id="MgAw0p7v9MN4LnJvcfot-31" value="" style="endArrow=none;dashed=1;html=1;dashPattern=1 3;strokeWidth=2;rounded=0;" edge="1" parent="MgAw0p7v9MN4LnJvcfot-34">
          <mxGeometry width="50" height="50" relative="1" as="geometry">
            <mxPoint x="100" y="37.142857142857146" as="sourcePoint" />
            <mxPoint x="210" y="37.142857142857146" as="targetPoint" />
          </mxGeometry>
        </mxCell>
        <mxCell id="MgAw0p7v9MN4LnJvcfot-33" value="" style="endArrow=none;dashed=1;html=1;dashPattern=1 3;strokeWidth=2;rounded=0;" edge="1" parent="MgAw0p7v9MN4LnJvcfot-34">
          <mxGeometry width="50" height="50" relative="1" as="geometry">
            <mxPoint x="100" y="37.142857142857146" as="sourcePoint" />
            <mxPoint x="100" as="targetPoint" />
          </mxGeometry>
        </mxCell>
        <mxCell id="MgAw0p7v9MN4LnJvcfot-36" value="" style="triangle;whiteSpace=wrap;html=1;rotation=-90;" vertex="1" parent="1">
          <mxGeometry x="335" y="508" width="10" height="15" as="geometry" />
        </mxCell>
        <mxCell id="MgAw0p7v9MN4LnJvcfot-37" value="PhoneDirector" style="swimlane;fontStyle=0;childLayout=stackLayout;horizontal=1;startSize=30;horizontalStack=0;resizeParent=1;resizeParentMax=0;resizeLast=0;collapsible=1;marginBottom=0;whiteSpace=wrap;html=1;" vertex="1" parent="1">
          <mxGeometry x="490" y="340" width="200" height="90" as="geometry" />
        </mxCell>
        <mxCell id="MgAw0p7v9MN4LnJvcfot-38" value="+constructAndroidPhone(Builder)" style="text;strokeColor=none;fillColor=none;align=left;verticalAlign=middle;spacingLeft=4;spacingRight=4;overflow=hidden;points=[[0,0.5],[1,0.5]];portConstraint=eastwest;rotatable=0;whiteSpace=wrap;html=1;" vertex="1" parent="MgAw0p7v9MN4LnJvcfot-37">
          <mxGeometry y="30" width="200" height="30" as="geometry" />
        </mxCell>
        <mxCell id="MgAw0p7v9MN4LnJvcfot-39" value="+constructIOSPhone(Builder)" style="text;strokeColor=none;fillColor=none;align=left;verticalAlign=middle;spacingLeft=4;spacingRight=4;overflow=hidden;points=[[0,0.5],[1,0.5]];portConstraint=eastwest;rotatable=0;whiteSpace=wrap;html=1;" vertex="1" parent="MgAw0p7v9MN4LnJvcfot-37">
          <mxGeometry y="60" width="200" height="30" as="geometry" />
        </mxCell>
        <mxCell id="MgAw0p7v9MN4LnJvcfot-42" style="edgeStyle=orthogonalEdgeStyle;rounded=0;orthogonalLoop=1;jettySize=auto;html=1;entryX=1.006;entryY=0.178;entryDx=0;entryDy=0;entryPerimeter=0;endArrow=open;endFill=0;" edge="1" parent="1" source="MgAw0p7v9MN4LnJvcfot-38" target="MgAw0p7v9MN4LnJvcfot-23">
          <mxGeometry relative="1" as="geometry" />
        </mxCell>
        <mxCell id="MgAw0p7v9MN4LnJvcfot-44" style="edgeStyle=orthogonalEdgeStyle;rounded=0;orthogonalLoop=1;jettySize=auto;html=1;endArrow=open;endFill=0;dashed=1;entryX=0.139;entryY=0.004;entryDx=0;entryDy=0;entryPerimeter=0;" edge="1" parent="1" source="MgAw0p7v9MN4LnJvcfot-43" target="MgAw0p7v9MN4LnJvcfot-7">
          <mxGeometry relative="1" as="geometry">
            <mxPoint x="190" y="580" as="targetPoint" />
            <Array as="points">
              <mxPoint x="189" y="275" />
              <mxPoint x="189" y="438" />
            </Array>
          </mxGeometry>
        </mxCell>
        <mxCell id="MgAw0p7v9MN4LnJvcfot-45" style="edgeStyle=orthogonalEdgeStyle;rounded=0;orthogonalLoop=1;jettySize=auto;html=1;entryX=0.5;entryY=0;entryDx=0;entryDy=0;endArrow=open;endFill=0;" edge="1" parent="1" source="MgAw0p7v9MN4LnJvcfot-43" target="MgAw0p7v9MN4LnJvcfot-37">
          <mxGeometry relative="1" as="geometry" />
        </mxCell>
        <mxCell id="MgAw0p7v9MN4LnJvcfot-43" value="Client" style="rounded=0;whiteSpace=wrap;html=1;" vertex="1" parent="1">
          <mxGeometry x="285" y="260" width="120" height="30" as="geometry" />
        </mxCell>
      </root>
    </mxGraphModel>
  </diagram>
</mxfile>
